<?xml version="1.0" encoding="UTF-8" standalone="no"?>
<!DOCTYPE svg PUBLIC "-//W3C//DTD SVG 1.1//EN"
 "http://www.w3.org/Graphics/SVG/1.1/DTD/svg11.dtd">
<!-- Generated by graphviz version 2.40.1 (20161225.0304)
 -->
<!-- Title: snakemake_dag Pages: 1 -->
<svg width="328pt" height="188pt"
 viewBox="0.00 0.00 328.00 188.00" xmlns="http://www.w3.org/2000/svg" xmlns:xlink="http://www.w3.org/1999/xlink">
<g id="graph0" class="graph" transform="scale(1 1) rotate(0) translate(4 184)">
<title>snakemake_dag</title>
<polygon fill="#ffffff" stroke="transparent" points="-4,4 -4,-184 324,-184 324,4 -4,4"/>
<!-- 0 -->
<g id="node1" class="node">
<title>0</title>
<path fill="none" stroke="#d6d856" stroke-width="2" d="M82,-36C82,-36 12,-36 12,-36 6,-36 0,-30 0,-24 0,-24 0,-12 0,-12 0,-6 6,0 12,0 12,0 82,0 82,0 88,0 94,-6 94,-12 94,-12 94,-24 94,-24 94,-30 88,-36 82,-36"/>
<text text-anchor="middle" x="47" y="-15.5" font-family="sans" font-size="10.00" fill="#000000">samtools_index</text>
</g>
<!-- 1 -->
<g id="node2" class="node">
<title>0</title>
<path fill="none" stroke="#d6d856" stroke-width="2" d="M82,-36C82,-36 12,-36 12,-36 6,-36 0,-30 0,-24 0,-24 0,-12 0,-12 0,-6 6,0 12,0 12,0 82,0 82,0 88,0 94,-6 94,-12 94,-12 94,-24 94,-24 94,-30 88,-36 82,-36"/>
<text text-anchor="middle" x="47" y="-15.5" font-family="sans" font-size="10.00" fill="#000000">samtools_index</text>
</g>
<!-- 1 -->
<g id="node2" class="node">
<title>1</title>
<path fill="none" stroke="#d6d856" stroke-width="2" d="M194,-36C194,-36 124,-36 124,-36 118,-36 112,-30 112,-24 112,-24 112,-12 112,-12 112,-6 118,0 124,0 124,0 194,0 194,0 200,0 206,-6 206,-12 206,-12 206,-24 206,-24 206,-30 200,-36 194,-36"/>
<text text-anchor="middle" x="159" y="-15.5" font-family="sans" font-size="10.00" fill="#000000">samtools_index</text>
</g>
<!-- 2 -->
<g id="node3" class="node">
<title>2</title>
<path fill="none" stroke="#d6d856" stroke-width="2" d="M306,-36C306,-36 236,-36 236,-36 230,-36 224,-30 224,-24 224,-24 224,-12 224,-12 224,-6 230,0 236,0 236,0 306,0 306,0 312,0 318,-6 318,-12 318,-12 318,-24 318,-24 318,-30 312,-36 306,-36"/>
<text text-anchor="middle" x="159" y="-15.5" font-family="sans" font-size="10.00" fill="#000000">samtools_index</text>
</g>
<!-- 2 -->
<g id="node3" class="node">
<title>2</title>
<path fill="none" stroke="#d6d856" stroke-width="2" d="M306,-36C306,-36 236,-36 236,-36 230,-36 224,-30 224,-24 224,-24 224,-12 224,-12 224,-6 230,0 236,0 236,0 306,0 306,0 312,0 318,-6 318,-12 318,-12 318,-24 318,-24 318,-30 312,-36 306,-36"/>
<text text-anchor="middle" x="271" y="-15.5" font-family="sans" font-size="10.00" fill="#000000">samtools_index</text>
</g>
<!-- 3 -->
<g id="node4" class="node">
<title>3</title>
<path fill="none" stroke="#59d856" stroke-width="2" d="M78,-108C78,-108 16,-108 16,-108 10,-108 4,-102 4,-96 4,-96 4,-84 4,-84 4,-78 10,-72 16,-72 16,-72 78,-72 78,-72 84,-72 90,-78 90,-84 90,-84 90,-96 90,-96 90,-102 84,-108 78,-108"/>
<text text-anchor="middle" x="47" y="-87.5" font-family="sans" font-size="10.00" fill="#000000">samtools_sort</text>
</g>
<!-- 3&#45;&gt;0 -->
<g id="edge1" class="edge">
<title>3&#45;&gt;0</title>
<path fill="none" stroke="#c0c0c0" stroke-width="2" d="M47,-71.8314C47,-64.131 47,-54.9743 47,-46.4166"/>
<polygon fill="#c0c0c0" stroke="#c0c0c0" stroke-width="2" points="50.5001,-46.4132 47,-36.4133 43.5001,-46.4133 50.5001,-46.4132"/>
</g>
<!-- 4 -->
<g id="node5" class="node">
<title>4</title>
<path fill="none" stroke="#59d856" stroke-width="2" d="M190,-108C190,-108 128,-108 128,-108 122,-108 116,-102 116,-96 116,-96 116,-84 116,-84 116,-78 122,-72 128,-72 128,-72 190,-72 190,-72 196,-72 202,-78 202,-84 202,-84 202,-96 202,-96 202,-102 196,-108 190,-108"/>
<text text-anchor="middle" x="159" y="-87.5" font-family="sans" font-size="10.00" fill="#000000">samtools_sort</text>
</g>
<!-- 4&#45;&gt;1 -->
<g id="edge2" class="edge">
<title>4&#45;&gt;1</title>
<path fill="none" stroke="#c0c0c0" stroke-width="2" d="M159,-71.8314C159,-64.131 159,-54.9743 159,-46.4166"/>
<polygon fill="#c0c0c0" stroke="#c0c0c0" stroke-width="2" points="162.5001,-46.4132 159,-36.4133 155.5001,-46.4133 162.5001,-46.4132"/>
</g>
<!-- 5 -->
<g id="node6" class="node">
<title>5</title>
<path fill="none" stroke="#59d856" stroke-width="2" d="M302,-108C302,-108 240,-108 240,-108 234,-108 228,-102 228,-96 228,-96 228,-84 228,-84 228,-78 234,-72 240,-72 240,-72 302,-72 302,-72 308,-72 314,-78 314,-84 314,-84 314,-96 314,-96 314,-102 308,-108 302,-108"/>
<text text-anchor="middle" x="271" y="-87.5" font-family="sans" font-size="10.00" fill="#000000">samtools_sort</text>
</g>
<!-- 5&#45;&gt;2 -->
<g id="edge3" class="edge">
<title>5&#45;&gt;2</title>
<path fill="none" stroke="#c0c0c0" stroke-width="2" d="M271,-71.8314C271,-64.131 271,-54.9743 271,-46.4166"/>
<polygon fill="#c0c0c0" stroke="#c0c0c0" stroke-width="2" points="274.5001,-46.4132 271,-36.4133 267.5001,-46.4133 274.5001,-46.4132"/>
</g>
<!-- 6 -->
<g id="node7" class="node">
<title>6</title>
<path fill="none" stroke="#d85656" stroke-width="2" d="M76.5,-180C76.5,-180 17.5,-180 17.5,-180 11.5,-180 5.5,-174 5.5,-168 5.5,-168 5.5,-156 5.5,-156 5.5,-150 11.5,-144 17.5,-144 17.5,-144 76.5,-144 76.5,-144 82.5,-144 88.5,-150 88.5,-156 88.5,-156 88.5,-168 88.5,-168 88.5,-174 82.5,-180 76.5,-180"/>
<text text-anchor="middle" x="47" y="-165" font-family="sans" font-size="10.00" fill="#000000">bowtie_map</text>
<text text-anchor="middle" x="47" y="-154" font-family="sans" font-size="10.00" fill="#000000">sample: Input</text>
</g>
<!-- 6&#45;&gt;3 -->
<g id="edge4" class="edge">
<title>6&#45;&gt;3</title>
<path fill="none" stroke="#c0c0c0" stroke-width="2" d="M47,-143.8314C47,-136.131 47,-126.9743 47,-118.4166"/>
<polygon fill="#c0c0c0" stroke="#c0c0c0" stroke-width="2" points="50.5001,-118.4132 47,-108.4133 43.5001,-118.4133 50.5001,-118.4132"/>
</g>
<!-- 7 -->
<g id="node8" class="node">
<title>7</title>
<path fill="none" stroke="#d85656" stroke-width="2" d="M191.5,-180C191.5,-180 126.5,-180 126.5,-180 120.5,-180 114.5,-174 114.5,-168 114.5,-168 114.5,-156 114.5,-156 114.5,-150 120.5,-144 126.5,-144 126.5,-144 191.5,-144 191.5,-144 197.5,-144 203.5,-150 203.5,-156 203.5,-156 203.5,-168 203.5,-168 203.5,-174 197.5,-180 191.5,-180"/>
<text text-anchor="middle" x="159" y="-165" font-family="sans" font-size="10.00" fill="#000000">bowtie_map</text>
<text text-anchor="middle" x="159" y="-154" font-family="sans" font-size="10.00" fill="#000000">sample: FoxA1</text>
</g>
<!-- 7&#45;&gt;4 -->
<g id="edge5" class="edge">
<title>7&#45;&gt;4</title>
<path fill="none" stroke="#c0c0c0" stroke-width="2" d="M159,-143.8314C159,-136.131 159,-126.9743 159,-118.4166"/>
<polygon fill="#c0c0c0" stroke="#c0c0c0" stroke-width="2" points="162.5001,-118.4132 159,-108.4133 155.5001,-118.4133 162.5001,-118.4132"/>
</g>
<!-- 8 -->
<g id="node9" class="node">



<title>8</title>
<path fill="none" stroke="#d85656" stroke-width="2" d="M308,-180C308,-180 234,-180 234,-180 228,-180 222,-174 222,-168 222,-168 222,-156 222,-156 222,-150 228,-144 234,-144 234,-144 308,-144 308,-144 314,-144 320,-150 320,-156 320,-156 320,-168 320,-168 320,-174 314,-180 308,-180"/>
<text text-anchor="middle" x="271" y="-165" font-family="sans" font-size="10.00" fill="#000000">bowtie_map</text>
<text text-anchor="middle" x="271" y="-154" font-family="sans" font-size="10.00" fill="#000000">sample: 298&#45;301</text>
</g>
<!-- 8&#45;&gt;5 -->
<g id="edge6" class="edge">
<title>8&#45;&gt;5</title>
<path fill="none" stroke="#c0c0c0" stroke-width="2" d="M271,-143.8314C271,-136.131 271,-126.9743 271,-118.4166"/>
<polygon fill="#c0c0c0" stroke="#c0c0c0" stroke-width="2" points="274.5001,-118.4132 271,-108.4133 267.5001,-118.4133 274.5001,-118.4132"/>
</g>
</g>
</svg>
